<!DOCTYPE svg PUBLIC "-//W3C//DTD SVG 1.1//EN" "http://www.w3.org/Graphics/SVG/1.1/DTD/svg11.dtd">
<!-- Uploaded to: SVG Repo, www.svgrepo.com, Transformed by: SVG Repo Mixer Tools -->
<svg fill="#000000" width="800px" height="800px" viewBox="0 0 24 24" id="capsule-2" data-name="Line Color" xmlns="http://www.w3.org/2000/svg" class="icon line-color">
<g id="SVGRepo_bgCarrier" stroke-width="0"/>
<g id="SVGRepo_tracerCarrier" stroke-linecap="round" stroke-linejoin="round"/>
<g id="SVGRepo_iconCarrier">
<path id="primary" d="M17,5.59V3H7V5.59A3.41,3.41,0,0,1,6,8H6a3.41,3.41,0,0,0-1,2.41V20a1,1,0,0,0,1,1H18a1,1,0,0,0,1-1V10.41A3.41,3.41,0,0,0,18,8h0A3.41,3.41,0,0,1,17,5.59Z" style="fill: none; stroke: #5a141e; stroke-linecap: round; stroke-linejoin: round; stroke-width: 2;"/>
<path id="secondary" d="M12,13v4m2-2H10M18,3H6" style="fill: none; stroke: #c0a183; stroke-linecap: round; stroke-linejoin: round; stroke-width: 2;"/>
</g>
</svg>